<?xml version="1.0" standalone="no"?>
<!DOCTYPE svg PUBLIC "-//W3C//DTD SVG 20010904//EN"
 "http://www.w3.org/TR/2001/REC-SVG-20010904/DTD/svg10.dtd">
<svg version="1.0" xmlns="http://www.w3.org/2000/svg"
 width="1000.000000pt" height="1000.000000pt" viewBox="0 0 1000.000000 1000.000000"
 preserveAspectRatio="xMidYMid meet">
<metadata>
Created by potrace 1.14, written by Peter Selinger 2001-2017
</metadata>
<g transform="translate(0.000000,1000.000000) scale(0.100000,-0.100000)"
fill="#000000" stroke="none">
<path d="M4915 6790 c-4 -6 -9 -43 -11 -83 -3 -39 -7 -87 -9 -104 -3 -31 -1
-33 38 -43 138 -36 248 -84 372 -165 l90 -58 151 -2 c265 -4 465 -23 724 -69
47 -8 96 -18 110 -20 14 -3 50 -11 80 -17 244 -49 586 -152 855 -260 142 -56
306 -128 358 -158 41 -23 61 -28 36 -8 -9 7 -31 24 -50 39 -467 369 -1123 697
-1664 832 -225 56 -299 71 -450 91 -66 9 -133 18 -150 21 -65 11 -474 14 -480
4z"/>
<path d="M4574 6467 c-27 -24 -41 -79 -30 -121 5 -22 42 -62 112 -123 34 -29
163 -144 202 -180 20 -18 43 -34 51 -35 9 0 23 -2 31 -3 17 -2 70 26 70 36 0
3 14 23 30 44 34 42 39 88 15 123 -18 24 -220 166 -330 230 -89 52 -118 57
-151 29z"/>
<path d="M1879 6466 c-2 -2 -53 -7 -114 -10 -191 -12 -224 -19 -225 -48 0 -4
27 -23 60 -43 122 -74 222 -187 289 -327 18 -37 37 -71 43 -74 5 -3 22 5 36
19 42 40 138 94 207 117 255 85 614 50 1085 -106 74 -24 144 -49 155 -54 11
-5 56 -23 100 -41 115 -45 288 -122 420 -187 72 -36 88 -29 80 32 -2 22 -7 88
-10 145 -4 57 -8 122 -10 145 -2 23 -6 79 -10 126 -3 46 -8 87 -11 90 -3 3
-110 5 -237 6 -203 1 -300 5 -397 19 -14 2 -50 7 -80 10 -77 9 -267 52 -358
81 -127 40 -232 63 -367 80 -22 3 -53 8 -70 11 -32 6 -580 14 -586 9z"/>
<path d="M5558 6295 c-2 -3 -28 -7 -58 -11 -158 -19 -351 -145 -469 -307 -41
-56 -131 -224 -131 -244 0 -6 -23 -48 -51 -94 -82 -138 -180 -213 -274 -211
-47 1 -181 31 -305 68 -271 81 -689 227 -816 284 -27 13 -107 49 -177 81 -70
33 -130 59 -133 59 -4 0 -20 6 -37 14 -42 18 -220 73 -277 85 -192 40 -370 32
-479 -24 -40 -20 -274 -200 -329 -252 -10 -10 -58 -54 -106 -97 -148 -134
-266 -254 -266 -270 0 -11 10 -16 33 -17 17 -1 48 -2 67 -4 19 -1 87 -5 150
-9 150 -9 216 -14 325 -21 50 -4 122 -8 160 -10 39 -2 106 -6 150 -10 44 -3
123 -8 175 -10 52 -3 127 -7 165 -10 39 -3 95 -8 125 -10 30 -2 105 -7 165
-10 61 -3 130 -7 155 -10 25 -2 95 -7 155 -10 61 -3 133 -8 160 -10 28 -3 95
-7 150 -10 55 -3 132 -8 170 -10 39 -3 106 -7 150 -10 44 -2 116 -7 160 -10
86 -5 193 -12 333 -20 48 -3 114 -8 147 -10 104 -7 227 -15 310 -20 44 -2 112
-7 150 -10 74 -5 204 -14 320 -20 121 -7 258 -16 310 -20 28 -3 95 -7 150 -10
55 -3 132 -7 170 -10 85 -5 227 -15 315 -20 36 -2 106 -7 155 -10 50 -3 124
-8 165 -10 41 -3 111 -7 155 -10 83 -6 151 -10 320 -20 55 -4 118 -8 140 -10
22 -2 90 -6 150 -10 120 -6 224 -13 325 -20 68 -5 180 -12 315 -20 94 -6 223
-14 315 -21 36 -2 112 -7 170 -10 58 -2 122 -7 142 -9 46 -6 50 8 27 87 -45
152 -170 287 -363 391 -96 52 -394 197 -486 237 -41 18 -97 43 -125 56 -79 37
-465 187 -635 247 -391 139 -794 247 -1195 321 -11 2 -40 7 -65 11 -25 4 -54
9 -65 11 -11 3 -38 7 -60 9 -22 3 -58 8 -80 11 -54 7 -212 13 -217 9z"/>
<path d="M1477 5144 c-63 -33 -112 -78 -161 -147 -51 -71 -128 -219 -152 -292
-2 -5 -20 -57 -40 -115 -47 -136 -62 -196 -54 -210 7 -11 105 -7 170 5 8 2 44
6 80 10 36 4 74 9 84 11 11 2 42 6 70 9 28 3 67 7 86 10 19 2 58 7 85 10 28 3
66 8 85 10 19 2 60 7 90 10 30 4 66 8 80 10 14 2 59 7 100 10 41 3 86 8 100
10 14 2 59 6 100 10 41 4 86 8 100 10 14 2 59 7 100 10 41 3 95 8 120 10 25 2
81 7 125 10 44 3 109 7 145 10 63 4 194 12 330 20 435 24 1127 25 1395 1 22
-2 72 -7 110 -10 143 -13 171 -16 195 -21 14 -2 43 -7 65 -10 22 -3 51 -7 65
-10 14 -2 42 -7 63 -10 175 -25 427 -92 595 -159 l93 -37 147 6 c81 4 194 8
252 10 134 5 673 5 765 1 140 -7 291 -17 315 -21 14 -2 59 -6 100 -10 41 -4
86 -8 100 -10 14 -2 43 -6 65 -9 22 -3 60 -8 85 -11 37 -5 249 -46 312 -60 10
-2 61 -16 114 -30 l97 -26 76 36 c213 102 376 218 538 382 62 63 113 118 113
123 0 5 12 22 26 39 33 40 27 55 -22 57 -41 1 -265 13 -374 19 -36 2 -121 7
-190 10 -69 3 -159 8 -200 10 -87 5 -244 14 -380 20 -52 3 -135 7 -185 10 -49
3 -137 7 -195 10 -58 3 -150 8 -205 11 -146 8 -225 12 -365 19 -69 3 -152 7
-185 10 -33 2 -121 6 -195 10 -74 3 -164 8 -200 10 -36 2 -117 6 -180 9 -63 4
-153 9 -200 11 -109 6 -257 14 -390 20 -58 3 -141 7 -185 10 -44 2 -129 7
-190 10 -60 3 -148 8 -195 10 -178 10 -269 15 -380 20 -63 3 -144 8 -180 10
-36 3 -119 7 -185 10 -298 14 -507 25 -770 40 -49 3 -137 7 -195 10 -274 14
-495 25 -575 30 -38 3 -124 7 -190 10 -66 2 -154 7 -195 10 -41 2 -122 7 -180
10 -92 4 -245 12 -363 19 -25 2 -54 -6 -80 -20z"/>
<path d="M3567 4464 c-1 -1 -117 -5 -257 -9 -249 -6 -314 -8 -570 -20 -185 -9
-287 -14 -360 -20 -36 -2 -99 -7 -140 -10 -41 -3 -97 -7 -125 -9 -27 -3 -88
-7 -135 -11 -47 -3 -96 -8 -110 -10 -14 -3 -52 -7 -85 -10 -33 -3 -91 -9 -130
-15 -38 -5 -90 -12 -115 -15 -50 -7 -259 -44 -275 -49 -5 -1 -38 -9 -72 -16
-34 -8 -60 -17 -57 -22 9 -15 338 -260 359 -268 53 -19 497 -17 730 4 22 2 74
7 116 10 42 4 85 8 95 10 11 2 53 7 94 10 41 4 91 9 110 11 19 3 55 7 80 10
25 3 61 7 80 10 19 2 58 7 85 10 28 3 66 8 85 10 19 3 53 7 75 9 71 8 160 18
175 21 24 5 140 17 285 30 44 4 94 9 110 10 48 5 242 17 340 21 106 4 561 4
655 0 36 -2 100 -4 143 -6 42 -2 77 -7 77 -11 0 -5 -15 -9 -32 -10 -18 0 -44
-2 -58 -4 -14 -1 -61 -6 -105 -10 -44 -4 -87 -8 -95 -10 -8 -1 -51 -6 -95 -10
-44 -4 -87 -8 -95 -10 -14 -2 -135 -17 -170 -20 -35 -3 -156 -18 -170 -20 -8
-2 -44 -6 -80 -10 -36 -4 -73 -9 -84 -11 -10 -2 -44 -6 -75 -9 -31 -4 -67 -8
-81 -10 -14 -2 -50 -7 -80 -10 -30 -3 -66 -8 -80 -10 -14 -2 -47 -6 -75 -9
-27 -3 -70 -8 -95 -11 -25 -3 -65 -8 -90 -10 -25 -3 -63 -7 -85 -10 -40 -4
-79 -8 -205 -20 -36 -4 -81 -8 -100 -10 -19 -2 -71 -6 -115 -10 -44 -3 -102
-7 -130 -10 -178 -13 -395 -19 -703 -20 -193 0 -352 -2 -352 -3 0 -4 89 -111
100 -122 3 -3 28 -33 54 -67 27 -35 54 -63 60 -64 6 0 18 -2 26 -3 14 -3 145
-15 230 -22 38 -3 186 -12 320 -19 100 -6 661 -6 770 0 238 12 445 26 590 40
127 13 147 15 193 20 49 5 135 15 177 20 14 2 54 6 90 10 36 4 72 9 80 10 8 2
44 6 80 10 36 4 72 9 81 10 9 2 40 6 70 10 30 3 65 8 79 10 14 2 45 6 70 10
25 3 61 8 80 11 19 3 49 7 65 9 180 23 287 36 320 41 22 2 51 7 65 9 14 2 50
7 80 10 30 3 66 8 80 10 29 5 92 12 175 20 33 3 98 10 145 15 118 13 190 19
295 26 50 3 106 7 125 9 215 23 979 23 1245 0 22 -1 76 -6 120 -10 44 -3 96
-8 115 -10 19 -2 60 -7 90 -10 85 -9 197 -25 285 -40 44 -8 94 -16 110 -19 25
-3 129 -26 195 -41 88 -20 266 -77 300 -95 20 -11 21 -10 9 11 -36 68 -151
162 -289 236 -183 98 -514 195 -815 239 -22 3 -51 7 -65 9 -14 2 -52 7 -85 10
-33 3 -71 8 -85 10 -117 20 -505 38 -800 37 -213 0 -598 -9 -693 -16 -25 -2
-68 9 -130 34 -80 32 -234 82 -293 95 -10 2 -68 15 -129 28 -60 14 -130 28
-155 32 -25 4 -54 9 -65 11 -34 7 -247 33 -305 38 -59 6 -131 11 -275 22 -82
6 -792 13 -798 8z"/>
</g>
</svg>
