<svg width="406" height="409" viewBox="0 0 406 409" fill="none" xmlns="http://www.w3.org/2000/svg">
<path fill-rule="evenodd" clip-rule="evenodd" d="M0.761719 222.874V396.5C0.761719 403.127 6.1343 408.5 12.7617 408.5H393.239C399.866 408.5 405.239 403.127 405.239 396.5V47.7398L0.761719 222.874Z" fill="#EAF5F1"/>
<path d="M197.5 143.192C231.466 143.192 259 115.658 259 81.6922C259 47.7267 231.466 20.1922 197.5 20.1922C163.534 20.1922 136 47.7267 136 81.6922C136 115.658 163.534 143.192 197.5 143.192Z" fill="#3EC18E"/>
<path d="M204.1 77.7922C225.473 77.7922 242.8 60.4656 242.8 39.0922C242.8 17.7188 225.473 0.392212 204.1 0.392212C182.726 0.392212 165.4 17.7188 165.4 39.0922C165.4 60.4656 182.726 77.7922 204.1 77.7922Z" fill="#3EC18E"/>
<path d="M216.4 156.692C229.379 156.692 239.9 146.171 239.9 133.192C239.9 120.214 229.379 109.692 216.4 109.692C203.421 109.692 192.9 120.214 192.9 133.192C192.9 146.171 203.421 156.692 216.4 156.692Z" fill="#3EC18E"/>
<path d="M244.2 177.192C249.833 177.192 254.4 172.626 254.4 166.992C254.4 161.359 249.833 156.792 244.2 156.792C238.567 156.792 234 161.359 234 166.992C234 172.626 238.567 177.192 244.2 177.192Z" fill="#3EC18E"/>
<path d="M271.8 184.392C275.777 184.392 279 181.169 279 177.192C279 173.216 275.777 169.992 271.8 169.992C267.824 169.992 264.6 173.216 264.6 177.192C264.6 181.169 267.824 184.392 271.8 184.392Z" fill="#3EC18E"/>
<path d="M148.4 86.4922C152.4 104.992 168.9 118.792 188.6 118.792C208.3 118.792 224.7 104.992 228.8 86.4922" stroke="black" stroke-width="3" stroke-miterlimit="10" stroke-linecap="round"/>
<path d="M188.5 19.1922C220.8 19.1922 247 45.4922 247 77.6922C247 109.892 220.7 136.192 188.5 136.192C156.3 136.192 130 109.992 130 77.6922C130 45.3922 156.3 19.1922 188.5 19.1922ZM188.5 16.1922C154.6 16.1922 127 43.6922 127 77.6922C127 111.692 154.6 139.192 188.5 139.192C222.4 139.192 250 111.592 250 77.6922C250.1 43.6922 222.5 16.1922 188.5 16.1922Z" fill="black"/>
</svg>
