<svg width="45" height="45" viewBox="0 0 45 45" fill="none" xmlns="http://www.w3.org/2000/svg">
<path d="M22.5008 0C13.3694 0 5.95654 7.41371 5.95654 16.5393C5.95654 20.3521 7.34346 23.7618 9.38375 26.6256C22.5008 45 22.5008 45 22.5008 45C22.5008 45 22.5008 45 35.6192 26.6234C37.6581 23.7604 39.0432 20.3423 39.0432 16.5393C39.0436 7.41371 31.6411 0 22.5008 0Z" fill="#FF3F4B"/>
<path d="M32.8279 16.5393C32.8279 22.2538 28.2091 26.8664 22.5008 26.8664C16.8006 26.8664 12.1724 22.2539 12.1724 16.5393C12.1724 10.8395 16.8006 6.214 22.5008 6.214C28.2095 6.214 32.8279 10.8395 32.8279 16.5393Z" fill="white"/>
</svg>
