<svg width="43" height="43" viewBox="0 0 43 43" fill="none" xmlns="http://www.w3.org/2000/svg">
<path d="M21.5 0C9.62587 0 0 9.62587 0 21.5C0 33.3741 9.62587 43 21.5 43C33.3741 43 43 33.3741 43 21.5C43 9.62587 33.3741 0 21.5 0ZM32.6749 13.6001L28.8563 31.8301C28.8101 32.0506 28.7092 32.2559 28.5629 32.4273C28.4167 32.5986 28.2297 32.7304 28.0192 32.8106C27.8086 32.8908 27.5813 32.9169 27.3581 32.8863C27.135 32.8557 26.923 32.7696 26.7418 32.6357L21.1874 28.5322L17.8223 31.7068C17.7783 31.7483 17.7264 31.7807 17.6697 31.802C17.613 31.8233 17.5526 31.8331 17.4921 31.8308C17.4316 31.8285 17.3722 31.8141 17.3172 31.7886C17.2623 31.7631 17.2131 31.7269 17.1723 31.6821L17.1 31.6026L17.6847 25.9442L28.2234 16.3153C28.2755 16.2678 28.3079 16.2024 28.3142 16.1322C28.3205 16.0619 28.3003 15.9918 28.2574 15.9358C28.2146 15.8797 28.1523 15.8417 28.0829 15.8293C28.0135 15.8169 27.9419 15.831 27.8823 15.8688L14.4046 24.3991L8.6 22.4496C8.44566 22.3978 8.31114 22.2994 8.2149 22.1681C8.11867 22.0368 8.06542 21.8789 8.06248 21.7161C8.05954 21.5533 8.10703 21.3936 8.19846 21.2589C8.28989 21.1241 8.42076 21.021 8.57312 20.9636L31.2842 12.4082C31.4594 12.3423 31.6491 12.3246 31.8334 12.3571C32.0177 12.3895 32.19 12.4709 32.3321 12.5927C32.4742 12.7146 32.581 12.8723 32.6413 13.0495C32.7016 13.2267 32.7132 13.4169 32.6749 13.6001Z" fill="url(#paint0_linear_70_35)"/>
<defs>
<linearGradient id="paint0_linear_70_35" x1="1.57277e-07" y1="43" x2="42.2187" y2="0.781306" gradientUnits="userSpaceOnUse">
<stop stop-color="#2081C7"/>
<stop offset="1" stop-color="#38AFE2"/>
</linearGradient>
</defs>
</svg>
