<svg width="43" height="43" viewBox="0 0 43 43" fill="none" xmlns="http://www.w3.org/2000/svg">
<path d="M22.0879 10.7399C20.2507 10.74 18.4482 11.2405 16.8739 12.1877C15.2996 13.1348 14.013 14.4928 13.1522 16.116C12.2915 17.7391 11.889 19.566 11.9881 21.4005C12.0872 23.2351 12.6841 25.008 13.7147 26.529L12.7262 30.3423L16.7005 29.415C18.0273 30.2499 19.53 30.7649 21.09 30.9195C22.65 31.074 24.2246 30.8638 25.6894 30.3055C27.1543 29.7472 28.4693 28.856 29.5306 27.7023C30.592 26.5486 31.3707 25.164 31.8052 23.6578C32.2397 22.1516 32.3182 20.565 32.0344 19.0233C31.7506 17.4816 31.1123 16.0269 30.1699 14.7741C29.2276 13.5214 28.0069 12.5048 26.6043 11.8047C25.2017 11.1046 23.6555 10.7401 22.0879 10.7399ZM27.0615 26.3766C25.6467 27.0401 22.6931 26.6939 19.5814 24.031C16.4697 21.368 15.6715 18.5031 16.1082 17.003C16.5449 15.5029 18.2607 15.2257 18.5844 15.2973C18.9081 15.369 20.5266 17.935 20.3061 18.2343C20.0855 18.5336 19.0202 19.599 19.0202 19.599C19.0202 19.599 18.9754 20.6891 20.9757 22.4011C22.976 24.113 24.0462 23.9003 24.0462 23.9003C24.0462 23.9003 24.9342 22.6825 25.1958 22.4189C25.4574 22.1553 28.2428 23.3579 28.3636 23.6666C28.4843 23.9754 28.4757 25.7134 27.061 26.3766H27.0615Z" fill="url(#paint0_linear_70_37)"/>
<path d="M21.5 0C9.62587 0 0 9.62587 0 21.5C0 33.3741 9.62587 43 21.5 43C33.3741 43 43 33.3741 43 21.5C43 9.62587 33.3741 0 21.5 0ZM22.0879 33.0857C20.0697 33.0887 18.0824 32.5899 16.3047 31.6343L9.80098 33.2578L11.4483 26.8918C10.1209 24.5533 9.60093 21.8426 9.9689 19.1789C10.3369 16.5152 11.5723 14.047 13.484 12.156C15.3958 10.265 17.8773 9.05654 20.5448 8.71762C23.2124 8.37871 25.9173 8.92818 28.2412 10.281C30.565 11.6339 32.3784 13.7148 33.4008 16.2018C34.4232 18.6889 34.5976 21.4435 33.8971 24.0397C33.1966 26.6358 31.6602 28.9288 29.5255 30.564C27.3909 32.1992 24.7769 33.0855 22.0879 33.0857Z" fill="url(#paint1_linear_70_37)"/>
<defs>
<linearGradient id="paint0_linear_70_37" x1="1.15488" y1="41.7866" x2="42.0129" y2="0.92862" gradientUnits="userSpaceOnUse">
<stop stop-color="#209142"/>
<stop offset="1" stop-color="#56D263"/>
</linearGradient>
<linearGradient id="paint1_linear_70_37" x1="1.18418" y1="41.8158" x2="42.0422" y2="0.957842" gradientUnits="userSpaceOnUse">
<stop stop-color="#209142"/>
<stop offset="1" stop-color="#56D263"/>
</linearGradient>
</defs>
</svg>
